<?xml version="1.0" standalone="no"?>
<!DOCTYPE svg PUBLIC "-//W3C//DTD SVG 20010904//EN"
 "http://www.w3.org/TR/2001/REC-SVG-20010904/DTD/svg10.dtd">
<svg version="1.0" xmlns="http://www.w3.org/2000/svg"
 width="683.000000pt" height="683.000000pt" viewBox="0 0 683.000000 683.000000"
 preserveAspectRatio="xMidYMid meet">
<metadata>
Created by potrace 1.11, written by Peter Selinger 2001-2013
</metadata>
<g transform="translate(0.000000,683.000000) scale(0.100000,-0.100000)"
fill="#000000" stroke="none">
<path d="M3030 6727 c-3 -3 -30 -8 -60 -11 -30 -4 -66 -8 -80 -11 -14 -2 -47
-6 -73 -9 -27 -4 -74 -19 -106 -35 -32 -16 -100 -41 -152 -55 -161 -43 -314
-95 -417 -142 -29 -13 -55 -24 -58 -24 -15 0 -297 -148 -390 -205 -484 -296
-882 -707 -1160 -1195 -205 -359 -352 -790 -400 -1170 -3 -25 -7 -52 -9 -60
-26 -97 -26 -677 -1 -805 2 -11 7 -47 10 -80 31 -264 152 -666 286 -950 113
-239 291 -514 475 -731 93 -110 330 -339 448 -433 64 -52 117 -97 117 -102 0
-4 17 -18 38 -30 20 -13 39 -25 42 -28 13 -14 220 -132 350 -198 255 -130 585
-250 820 -297 259 -51 252 -51 700 -51 420 0 472 3 615 31 44 8 91 18 105 20
14 3 43 10 65 16 22 5 49 12 61 14 24 4 179 52 274 84 238 80 603 252 765 359
22 15 48 30 58 34 10 4 16 11 13 15 -3 5 1 9 8 9 12 0 96 54 124 80 11 11 11
13 0 14 -7 1 -16 1 -20 0 -16 -2 -6 8 70 70 76 63 304 286 372 364 179 205
343 450 462 690 33 66 64 128 69 137 25 48 140 357 154 415 3 10 20 80 39 157
19 76 37 157 40 180 3 22 8 52 11 66 14 73 21 123 32 245 10 103 10 475 1 585
-7 76 -39 307 -52 368 -32 149 -105 408 -135 477 -5 11 -19 47 -32 80 -111
295 -319 649 -521 889 -93 110 -121 140 -227 246 -205 204 -390 349 -631 495
-107 65 -366 197 -421 214 -21 7 -62 30 -94 52 -31 21 -61 37 -66 34 -5 -4 -9
-2 -9 4 0 22 -150 66 -260 76 -88 8 -130 13 -160 20 -14 3 -36 8 -50 11 -98
18 -129 24 -160 28 -53 7 -120 16 -170 22 -25 4 -180 7 -345 9 -165 1 -314 6
-330 9 -17 4 -32 5 -35 3z"/>
</g>
</svg>
